# File created by Blade
# Date/Time:  Tue Jan 27 18:50:05 2015
# Frame Rate: 120.000 fps
#------------------------------------------------------
:FULLY-SPECIFIED
:DEGREES
2782
root 0.452910 32.004665 -7.722254 32.706095 -47.164820 -26.642991
Spine 14.765851 13.067934 8.934250
Head -13.187166 10.481815 21.785288
LeftShoulder -14.212234 10.938195 22.550416
LeftArm 37.533392 -11.425350 -68.670041
LeftForeArm -33.435722 -0.000000 136.016709
LeftHand -21.499514 0.000000 9.513386
LeftHandThumb1 -26.253704 0.000000 33.147579
RightShoulder 4.762264 27.611378 -11.991894
RightArm 57.600463 -62.624633 63.104516
RightForeArm -13.563306 -0.000000 59.231027
RightHand -10.867881 -0.000000 -10.243577
RightHandThumb1 -24.326973 -0.000000 -32.862282
LeftUpLeg -25.591055 7.813481 3.056438
LeftLeg 26.277714 -0.000000 -0.000000
LeftFoot -29.918016 30.064948 -18.767751
LeftToeBase 3.815116 -0.000000 -0.000000
RightUpLeg -60.419432 -37.117845 0.772216
RightLeg 71.871789 -0.000000 -0.000000
RightFoot -21.255121 -32.227694 13.371783
RightToeBase 13.525213 -0.000000 -0.000000
2783
root 0.392496 32.022693 -7.704399 32.601071 -46.562860 -26.769716
Spine 14.641789 12.897131 9.295221
Head -12.707106 10.130095 22.498870
LeftShoulder -14.163061 11.173802 22.594228
LeftArm 37.435634 -11.271816 -68.621703
LeftForeArm -33.589277 -0.000000 135.985707
LeftHand -21.167913 -0.000000 9.060454
LeftHandThumb1 -26.253704 0.000000 33.147579
RightShoulder 4.535168 27.246043 -11.710485
RightArm 57.193646 -62.811711 63.431501
RightForeArm -13.678401 -0.000000 59.274659
RightHand -10.917201 -0.000000 -10.230224
RightHandThumb1 -24.326973 -0.000000 -32.862282
LeftUpLeg -25.416950 7.340123 3.532394
LeftLeg 26.360323 -0.000000 -0.000000
LeftFoot -29.980813 30.114345 -18.834846
LeftToeBase 3.913279 -0.000000 -0.000000
RightUpLeg -59.597806 -36.775347 -0.395356
RightLeg 72.654747 -0.000000 -0.000000
RightFoot -19.641373 -32.642433 11.742136
RightToeBase 13.289848 -0.000000 -0.000000
2784
root 0.332939 32.046401 -7.677912 32.424681 -45.921633 -26.831241
Spine 14.505310 12.589231 9.637634
Head -12.170400 9.820746 23.192756
LeftShoulder -14.122787 11.313284 22.649863
LeftArm 37.196671 -10.998228 -68.530559
LeftForeArm -33.627888 0.000000 135.967408
LeftHand -20.864041 -0.000000 8.491230
LeftHandThumb1 -26.253704 0.000000 33.147579
RightShoulder 4.396710 26.958561 -11.383333
RightArm 56.555313 -62.998637 63.909147
RightForeArm -14.014145 -0.000000 59.314232
RightHand -10.869321 0.000000 -9.864305
RightHandThumb1 -24.326973 -0.000000 -32.862282
LeftUpLeg -25.208046 6.732888 4.000318
LeftLeg 26.416117 -0.000000 -0.000000
LeftFoot -30.019819 30.151516 -19.012432
LeftToeBase 4.006887 -0.000000 -0.000000
RightUpLeg -58.560573 -36.321311 -1.845193
RightLeg 73.472414 -0.000000 -0.000000
RightFoot -17.808187 -32.883170 9.859239
RightToeBase 12.517922 -0.000000 -0.000000
2785
root 0.266838 32.079493 -7.656155 32.367224 -45.255434 -27.019781
Spine 14.327242 12.280336 10.037739
Head -11.660984 9.569408 23.905751
LeftShoulder -14.135014 11.532424 22.664678
LeftArm 37.093371 -10.660093 -68.384974
LeftForeArm -33.654960 -0.000000 135.958198
LeftHand -20.718908 -0.000000 8.019478
LeftHandThumb1 -26.253704 0.000000 33.147579
RightShoulder 4.213596 26.637332 -11.078058
RightArm 55.969823 -63.202686 64.378614
RightForeArm -14.259714 -0.000000 59.307787
RightHand -10.856628 -0.000000 -9.822978
RightHandThumb1 -24.326973 -0.000000 -32.862282
LeftUpLeg -25.034643 6.194543 4.559765
LeftLeg 26.482759 -0.000000 -0.000000
LeftFoot -30.047572 30.188484 -19.193430
LeftToeBase 4.041662 -0.000000 -0.000000
RightUpLeg -57.422189 -35.593156 -3.387962
RightLeg 74.411104 -0.000000 -0.000000
RightFoot -16.016258 -32.895129 8.216944
RightToeBase 12.172269 -0.000000 -0.000000
2786
root 0.197896 32.115741 -7.632126 32.247314 -44.553679 -27.221721
Spine 14.207155 11.983379 10.485603
Head -11.160535 9.257304 24.648680
LeftShoulder -14.034036 11.564854 22.766165
LeftArm 36.842813 -10.187930 -68.155682
LeftForeArm -33.593073 -0.000000 135.978175
LeftHand -20.553499 0.000000 7.833084
LeftHandThumb1 -26.253704 0.000000 33.147579
RightShoulder 3.982687 26.264685 -10.790377
RightArm 55.662680 -63.377808 64.418158
RightForeArm -14.354243 -0.000000 59.429478
RightHand -10.829728 -0.000000 -9.646956
RightHandThumb1 -24.326973 -0.000000 -32.862282
LeftUpLeg -24.792896 5.614101 5.155551
LeftLeg 26.545180 -0.000000 -0.000000
LeftFoot -30.092672 30.208983 -19.439718
LeftToeBase 4.073259 -0.000000 -0.000000
RightUpLeg -56.128229 -34.678257 -5.106331
RightLeg 75.514118 -0.000000 -0.000000
RightFoot -14.281685 -32.714388 6.723037
RightToeBase 11.985761 -0.000000 -0.000000
2787
root 0.123547 32.155191 -7.608380 32.124915 -43.833399 -27.448172
Spine 14.068495 11.655606 10.933154
Head -10.616647 8.932746 25.426376
LeftShoulder -13.961411 11.696558 22.859670
LeftArm 36.728282 -9.617912 -67.848299
LeftForeArm -33.368014 -0.000000 135.951741
LeftHand -20.276168 0.000000 7.797146
LeftHandThumb1 -26.253704 0.000000 33.147579
RightShoulder 3.758427 25.907525 -10.488100
RightArm 55.210506 -63.538032 64.631058
RightForeArm -14.466563 -0.000000 59.475578
RightHand -10.819232 -0.000000 -9.660401
RightHandThumb1 -24.326973 -0.000000 -32.862282
LeftUpLeg -24.519117 5.070102 5.774852
LeftLeg 26.572774 -0.000000 -0.000000
LeftFoot -30.084374 30.214670 -19.597564
LeftToeBase 4.074629 -0.000000 -0.000000
RightUpLeg -54.764830 -33.567654 -6.903236
RightLeg 76.785794 -0.000000 -0.000000
RightFoot -12.243470 -32.584899 4.861511
RightToeBase 10.870697 -0.000000 -0.000000
2788
root 0.046127 32.195090 -7.580973 31.910114 -43.078340 -27.638211
Spine 13.976157 11.266855 11.370930
Head -10.100232 8.599805 26.245813
LeftShoulder -13.874863 11.659545 23.003997
LeftArm 36.567976 -8.905598 -67.466015
LeftForeArm -32.986889 -0.000000 135.923979
LeftHand -20.084963 0.000000 8.013997
LeftHandThumb1 -26.253704 0.000000 33.147579
RightShoulder 3.434930 25.461945 -10.199366
RightArm 55.323869 -63.691427 64.239225
RightForeArm -14.383905 0.000000 59.519911
RightHand -10.608821 -0.000000 -9.157438
RightHandThumb1 -24.326973 -0.000000 -32.862282
LeftUpLeg -24.178338 4.521002 6.382895
LeftLeg 26.579126 -0.000000 -0.000000
LeftFoot -30.086290 30.171559 -19.772268
LeftToeBase 4.095868 -0.000000 -0.000000
RightUpLeg -53.314609 -32.315039 -8.802396
RightLeg 78.189912 -0.000000 -0.000000
RightFoot -11.257877 -32.240605 4.179068
RightToeBase 10.873574 -0.000000 -0.000000
2789
root -0.032220 32.237975 -7.557765 31.734720 -42.274744 -27.874423
Spine 13.871462 10.859374 11.872004
Head -9.620332 8.237609 27.016723
LeftShoulder -13.744644 11.600805 23.112389
LeftArm 36.488054 -8.247622 -67.050816
LeftForeArm -32.645143 -0.000000 135.872475
LeftHand -20.057869 0.000000 8.052329
LeftHandThumb1 -26.253704 0.000000 33.147579
RightShoulder 3.157563 25.142240 -9.907928
RightArm 55.065357 -63.836972 64.148436
RightForeArm -14.440905 0.000000 59.614908
RightHand -10.499215 -0.000000 -8.976804
RightHandThumb1 -24.326973 -0.000000 -32.862282
LeftUpLeg -23.866467 4.061355 7.026506
LeftLeg 26.582845 -0.000000 -0.000000
LeftFoot -30.034098 30.047518 -19.839527
LeftToeBase 4.133043 -0.000000 -0.000000
RightUpLeg -51.894274 -30.914827 -10.631736
RightLeg 79.738625 -0.000000 -0.000000
RightFoot -10.921861 -31.927572 4.151006
RightToeBase 11.043508 -0.000000 -0.000000
2790
root -0.112445 32.279438 -7.534668 31.487684 -41.400837 -28.051985
Spine 13.749034 10.332860 12.350595
Head -9.109659 7.835740 27.793538
LeftShoulder -13.629577 11.615400 23.205229
LeftArm 36.558342 -7.557308 -66.562368
LeftForeArm -32.289808 -0.000000 135.782554
LeftHand -20.026895 -0.000000 8.252143
LeftHandThumb1 -26.253704 0.000000 33.147579
RightShoulder 2.910980 24.742502 -9.644725
RightArm 55.038343 -63.883930 63.829131
RightForeArm -14.577272 -0.000000 59.726209
RightHand -10.440876 -0.000000 -8.560474
RightHandThumb1 -24.326973 -0.000000 -32.862282
LeftUpLeg -23.548162 3.601105 7.652414
LeftLeg 26.579518 -0.000000 -0.000000
LeftFoot -29.937305 29.878005 -19.856689
LeftToeBase 4.113257 -0.000000 -0.000000
RightUpLeg -50.446474 -29.424410 -12.462205
RightLeg 81.363978 -0.000000 -0.000000
RightFoot -11.318132 -31.842282 4.780874
RightToeBase 12.092126 -0.000000 -0.000000
2791
root -0.194318 32.318963 -7.508553 31.143564 -40.476183 -28.149376
Spine 13.657654 9.768183 12.811541
Head -8.688049 7.373379 28.562637
LeftShoulder -13.478670 11.468319 23.319448
LeftArm 36.595956 -6.777414 -65.988535
LeftForeArm -31.839363 0.000000 135.622373
LeftHand -19.953568 -0.000000 8.428855
LeftHandThumb1 -26.253704 0.000000 33.147579
RightShoulder 2.662744 24.411587 -9.364239
RightArm 55.174778 -64.002686 63.284646
RightForeArm -14.313546 -0.000000 59.825832
RightHand -10.537526 0.000000 -9.174903
RightHandThumb1 -24.326973 -0.000000 -32.862282
LeftUpLeg -23.196473 3.110990 8.243349
LeftLeg 26.554216 -0.000000 -0.000000
LeftFoot -29.856034 29.624640 -19.881446
LeftToeBase 4.202831 -0.000000 -0.000000
RightUpLeg -48.974510 -27.869770 -14.298622
RightLeg 83.134029 -0.000000 -0.000000
RightFoot -11.016731 -32.151408 4.358476
RightToeBase 11.515194 -0.000000 -0.000000
2792
root -0.276914 32.357868 -7.489469 30.880536 -39.530799 -28.265070
Spine 13.470432 9.230724 13.259049
Head -8.279583 6.924591 29.341273
LeftShoulder -13.316429 11.373463 23.425711
LeftArm 36.787006 -5.973047 -65.362404
LeftForeArm -31.471377 -0.000000 135.401020
LeftHand -19.807521 -0.000000 8.888176
LeftHandThumb1 -26.253704 0.000000 33.147579
RightShoulder 2.416293 24.066146 -9.099590
RightArm 55.025066 -64.058955 63.054232
RightForeArm -14.138717 -0.000000 59.939387
RightHand -10.584459 -0.000000 -9.582430
RightHandThumb1 -24.326973 -0.000000 -32.862282
LeftUpLeg -22.944924 2.726358 8.841428
LeftLeg 26.547993 -0.000000 -0.000000
LeftFoot -29.734372 29.360783 -19.806908
LeftToeBase 4.316418 -0.000000 -0.000000
RightUpLeg -47.675677 -26.263824 -15.960308
RightLeg 85.020537 -0.000000 -0.000000
RightFoot -11.027537 -32.493311 4.197308
RightToeBase 11.096888 -0.000000 -0.000000
